<svg xmlns="http://www.w3.org/2000/svg" width="451" height="190"><defs><linearGradient id="a" x1="48.374%" x2="51.626%" y1="0%" y2="100%"><stop offset="0%" stop-color="#F18CB9"/><stop offset="100%" stop-color="#F8D691"/></linearGradient><linearGradient id="b" x1="1.448%" x2="100%" y1="15.849%" y2="85.169%"><stop offset="0%" stop-color="#F8D394"/><stop offset="100%" stop-color="#F3A098"/></linearGradient><linearGradient id="c" x1="0%" x2="100%" y1="14.831%" y2="85.169%"><stop offset="0%" stop-color="#FCDC9A"/><stop offset="100%" stop-color="#FBC994"/></linearGradient><linearGradient id="d" x1="35.439%" x2="64.714%" y1=".519%" y2="100%"><stop offset="0%" stop-color="#F9DC8C"/><stop offset="100%" stop-color="#FCE0A0"/></linearGradient><linearGradient id="e" x1="0%" x2="100%" y1="11.31%" y2="88.69%"><stop offset="0%" stop-color="#F8AAA1"/><stop offset="100%" stop-color="#EF8897"/></linearGradient><linearGradient id="f" x1="0%" x2="100%" y1="14.831%" y2="85.169%"><stop offset="0%" stop-color="#E57097"/><stop offset="100%" stop-color="#E271AF"/></linearGradient><linearGradient id="g" x1="0%" x2="100%" y1="14.831%" y2="85.169%"><stop offset="0%" stop-color="#F49180"/><stop offset="100%" stop-color="#E979A8"/></linearGradient><linearGradient id="h" x1="35.286%" x2="64.714%" y1="0%" y2="100%"><stop offset="0%" stop-color="#F29BA3"/><stop offset="100%" stop-color="#FB94A0"/></linearGradient></defs><g fill="none"><path fill="#000" d="M210.146 62.39c-18.629 0-28.99 10.64-28.99 32.205 0 21.47 10.266 31.92 28.99 31.92h8.745c18.724 0 28.99-10.45 28.99-31.92 0-21.565-10.36-32.205-28.99-32.205h-8.745Zm8.745 11.21c12.356 0 17.679 6.27 17.679 20.9 0 14.725-5.323 20.805-17.68 20.805h-8.744c-12.45 0-17.774-6.08-17.774-20.71 0-14.725 5.418-20.995 17.774-20.995h8.745Zm47.524-11.21c-3.612 0-5.323 1.71-5.323 5.225v53.675c0 3.515 1.71 5.225 5.323 5.225h22.621c18.82 0 28.895-10.45 28.895-32.015 0-21.66-10.17-32.11-28.895-32.11h-22.621Zm5.893 12.35c0-.855.38-1.14 1.235-1.14h15.493c12.451 0 17.679 6.175 17.679 20.805 0 14.725-5.228 20.9-17.679 20.9h-15.493c-.855 0-1.235-.285-1.235-1.14V74.74Zm58.834-12.35v64.125h11.216V62.39h-11.216Zm37.83 13.395c0-2.28 1.33-3.705 3.896-3.705 1.996 0 3.137.855 3.992 2.755l18.725 40.945c2.661 7.315 6.748 11.875 15.683 11.875 9.885 0 14.732-5.605 14.732-14.06V62.39h-11.31v50.73c0 2.185-1.426 3.61-3.803 3.61-2.09 0-3.326-1.14-4.087-2.66l-18.724-40.945c-2.661-7.315-6.653-11.875-15.588-11.875-9.98 0-14.732 5.605-14.732 13.965v51.3h11.215v-50.73Z"/><path fill="#4485FF" d="M78.185 31.874c1.726 0 3.126 1.4 3.126 3.126v28.364a3.126 3.126 0 0 1-6.252 0V35c0-1.726 1.4-3.126 3.126-3.126Zm13.691 0c1.726 0 3.126 1.4 3.126 3.126v28.364a3.126 3.126 0 0 1-6.252 0V35c0-1.726 1.4-3.126 3.126-3.126Z"/><path fill="url(#a)" d="M53.185 88.453c1.726 0 3.126 1.4 3.126 3.126V120a3.126 3.126 0 0 1-6.252 0V91.579c0-1.727 1.4-3.126 3.126-3.126Zm13.691 0c1.726 0 3.126 1.4 3.126 3.126V120a3.126 3.126 0 0 1-6.252 0V91.579c0-1.727 1.4-3.126 3.126-3.126Z" transform="translate(25 35)"/><path fill="#4485FF" d="M148.186 94.474c0 1.726-1.4 3.126-3.126 3.126h-28.378a3.126 3.126 0 0 1 0-6.252h28.378c1.727 0 3.126 1.4 3.126 3.126Z"/><path fill="#37BBFF" d="M21.874 94.474c0 1.726 1.4 3.126 3.126 3.126h28.435a3.126 3.126 0 0 0 0-6.252H25a3.126 3.126 0 0 0-3.126 3.126Z"/><path fill="#386BFF" d="M34.234 57.085a3.126 3.126 0 0 1 4.387-.547l16.735 13.026a3.126 3.126 0 0 1-3.84 4.934L34.78 61.472a3.126 3.126 0 0 1-.547-4.387Zm10.006-10a3.126 3.126 0 0 1 4.386-.547l16.735 13.026a3.126 3.126 0 0 1-3.84 4.934L44.785 51.472a3.126 3.126 0 0 1-.547-4.387Zm19.2-9.947c1.727 0 3.126 1.4 3.126 3.126v5.273a3.126 3.126 0 0 1-6.252 0v-5.273c0-1.727 1.4-3.126 3.126-3.126ZM26.699 69.443a3.126 3.126 0 0 1 4.394-.49l9.388 7.507a3.126 3.126 0 1 1-3.904 4.883l-9.389-7.506a3.126 3.126 0 0 1-.49-4.394Zm109.318-12.358a3.126 3.126 0 0 0-4.387-.547l-16.734 13.026a3.126 3.126 0 0 0 3.84 4.934l16.735-13.026a3.126 3.126 0 0 0 .546-4.387Zm-10.005-10a3.126 3.126 0 0 0-4.387-.547l-16.734 13.026a3.126 3.126 0 0 0 3.84 4.934l16.734-13.026a3.126 3.126 0 0 0 .547-4.387Zm-19.201-9.947a3.126 3.126 0 0 0-3.126 3.126v5.273a3.126 3.126 0 0 0 6.252 0v-5.273c0-1.727-1.4-3.126-3.126-3.126Zm36.742 32.305a3.126 3.126 0 0 0-4.394-.49l-9.388 7.507a3.126 3.126 0 1 0 3.904 4.883l9.388-7.506a3.126 3.126 0 0 0 .49-4.394Z"/><path fill="url(#b)" d="M9.234 81.267a3.126 3.126 0 0 1 4.387-.547l16.735 13.026a3.126 3.126 0 0 1-3.84 4.934L9.78 85.654a3.126 3.126 0 0 1-.547-4.387Z" transform="matrix(1 0 0 -1 25 214.4)"/><path fill="url(#c)" d="M19.24 91.267a3.126 3.126 0 0 1 4.386-.547l16.735 13.026a3.126 3.126 0 0 1-3.84 4.934L19.785 95.654a3.126 3.126 0 0 1-.547-4.387Z" transform="matrix(1 0 0 -1 25 234.4)"/><path fill="url(#d)" d="M38.44 106.555c1.727 0 3.126 1.4 3.126 3.126v5.273a3.126 3.126 0 1 1-6.252 0v-5.273c0-1.726 1.4-3.126 3.126-3.126Z" transform="matrix(1 0 0 -1 25 259.635)"/><path fill="url(#e)" d="M1.699 74.364a3.126 3.126 0 0 1 4.394-.49l9.388 7.507a3.126 3.126 0 1 1-3.904 4.883l-9.389-7.506a3.126 3.126 0 0 1-.49-4.394Z" transform="matrix(1 0 0 -1 25 195.14)"/><path fill="url(#f)" d="M89.35 81.267a3.126 3.126 0 0 1 4.386-.547l16.735 13.026a3.126 3.126 0 0 1-3.84 4.934L89.895 85.654a3.126 3.126 0 0 1-.547-4.387Z" transform="rotate(180 112.683 107.2)"/><path fill="url(#g)" d="M79.344 91.267a3.126 3.126 0 0 1 4.387-.547l16.734 13.026a3.126 3.126 0 0 1-3.84 4.934L79.891 95.654a3.126 3.126 0 0 1-.547-4.387Z" transform="rotate(180 102.678 117.2)"/><path fill="url(#h)" d="M81.811 106.555c1.727 0 3.126 1.4 3.126 3.126v5.273a3.126 3.126 0 1 1-6.252 0v-5.273c0-1.726 1.4-3.126 3.126-3.126Z" transform="rotate(180 94.311 129.817)"/><path fill="#DF6797" d="M143.553 120.775a3.126 3.126 0 0 1-4.394.49l-9.388-7.507a3.126 3.126 0 1 1 3.904-4.883l9.388 7.506a3.126 3.126 0 0 1 .49 4.394Z"/></g></svg>